<svg width="312" height="114" viewBox="0 0 312 114" fill="none" xmlns="http://www.w3.org/2000/svg">
<g clip-path="url(#clip0_13094_81201)">
<path d="M18.2451 47.1894V67.1917H13.2257V59.7621H5.01943V67.2859H0V47.2848H5.01943V55.2857H13.2257V47.2848H18.2451V47.1894ZM76.1657 67.1905H71.1463V57.1893L66.6093 64.0475H63.8082L59.2723 57.0951V67.1905H54.2529V47.1894H58.0174L65.1609 57.8573L72.3044 47.1894H76.069V67.1917L76.1657 67.1905ZM36.2966 46.333C28.284 46.333 21.8162 52.4279 21.8162 59.9529C21.8162 62.6186 22.5887 65.0961 24.037 67.1905H30.9871C28.8643 65.5719 27.5127 63.0958 27.5127 60.2379C27.5127 55.4753 31.4695 51.5715 36.2966 51.5715C41.1239 51.5715 45.0819 55.4753 45.0819 60.2379C45.0819 63.0958 43.7303 65.5719 41.6062 67.1905H48.5563C49.9079 65.0961 50.7772 62.6186 50.7772 59.9529C50.7759 52.4279 44.307 46.333 36.2966 46.333Z" fill="#DA0025"/>
<path d="M31.5664 62.2382C32.2421 64.2384 34.0774 65.6674 36.2968 65.6674C38.5176 65.6674 40.3517 64.2384 41.0274 62.2382H31.5664ZM85.3369 55.1903H94.3143V59.3803H85.3369V62.8095H95.5692V67.095H80.2194V47.0939H95.5692V51.3807H85.3369V55.1903ZM245.391 61.6668C245.391 65.0006 242.688 67.1904 238.151 67.1904H227.919V47.1893H237.571C242.012 47.1893 244.522 49.285 244.522 52.5233C244.522 54.3327 243.46 56.3328 241.722 56.9042C244.136 57.4755 245.391 59.5712 245.391 61.6668ZM232.938 51.2852V55.4752H236.704C238.635 55.4752 239.695 54.5235 239.695 53.2855C239.695 52.0462 238.635 51.3807 236.704 51.3807H232.938V51.2852ZM240.468 61C240.468 59.7608 239.406 59.0952 237.571 59.0952H232.938V63.0958H237.475C239.502 63.0958 240.468 62.2382 240.468 61ZM260.932 63.7626H252.341L250.991 67.1904H245.584L254.176 47.1893H259.002L267.593 67.1916H262.188L260.932 63.7626ZM259.293 59.6666L256.589 52.9037L253.886 59.6666H259.293ZM287.963 47.1893V67.1916H284.102L274.352 56.2375V67.1904H269.333V47.1893H273.194L282.944 58.4286V47.1893H287.963ZM300.223 59.762L297.231 63.1899V67.2871H292.21V47.2848H297.231V56.4283L305.339 47.2848H311.324L303.602 56.0466L312 67.2871H305.726L300.223 59.762ZM142.968 67.1904L139.107 61.3806H135.342V67.1904H130.225V47.1893H139.107C144.127 47.1893 147.505 49.8563 147.505 54.2372C147.505 56.8088 146.25 58.9999 144.126 60.2379L148.857 67.1904H142.968ZM135.244 57.0008H139.01C140.941 57.0008 142.485 55.9536 142.485 54.3339C142.485 52.7154 140.94 51.6669 139.01 51.6669H135.244V57.0008ZM156.386 55.1903H165.364V59.3803H156.386V62.8095H166.619V67.095H151.269V47.0939H166.619V51.3807H156.386V55.1903ZM189.112 57.1904C189.112 63.0958 184.575 67.2859 178.203 67.2859H170.095V47.2848H178.203C184.478 47.1893 189.112 51.2852 189.112 57.1904ZM183.994 57.1904C183.994 54.1418 181.485 51.7623 178.204 51.7623H175.114V62.8095H178.204C181.485 62.714 183.994 60.3334 183.994 57.1904ZM196.834 47.1893V67.1916H191.814V47.1881L196.834 47.1893ZM216.141 51.6657H210.349V67.1904H205.33V51.6657H199.537V47.1893H216.141V51.6657ZM122.02 60.0471C121.248 61.8564 119.606 63.0003 117.385 63.0003C114.104 63.0003 111.787 60.6184 111.787 57.2859C111.787 53.9522 114.104 51.5715 117.387 51.5715C119.606 51.5715 121.248 52.6187 122.02 54.5235H127.329C126.267 49.9517 122.503 46.9043 117.387 46.9043C111.305 46.9043 106.672 51.2852 106.672 57.2859C106.672 63.2854 111.305 67.6663 117.387 67.6663C122.503 67.6663 126.267 64.6188 127.329 60.0471H122.02Z" fill="#DA0025"/>
</g>
<defs>
<clipPath id="clip0_13094_81201">
<rect width="312" height="32" fill="white" transform="translate(0 41)"/>
</clipPath>
</defs>
</svg>
